<?xml version="1.0" encoding="iso-8859-1"?>
<!-- Uploaded to: SVG Repo, www.svgrepo.com, Generator: SVG Repo Mixer Tools -->
<svg fill="#000000" height="800px" width="800px" version="1.1" id="Layer_1" xmlns="http://www.w3.org/2000/svg" xmlns:xlink="http://www.w3.org/1999/xlink" 
	 viewBox="0 0 512 512" xml:space="preserve">
<g>
	<g>
		<g>
			<path d="M166.677,172.966c-4.608-3.605-11.328-2.901-15.019,1.685l-74.923,93.653L62.869,240.55
				c-2.645-5.291-9.045-7.403-14.315-4.779c-5.269,2.645-7.403,9.045-4.779,14.315l21.333,42.667c1.621,3.243,4.8,5.461,8.427,5.824
				c0.384,0.043,0.747,0.064,1.131,0.064c3.221,0,6.293-1.451,8.341-4.011l85.333-106.667
				C172.011,183.355,171.285,176.657,166.677,172.966z"/>
			<path d="M138.667,245.329c-5.888,0-10.667,4.779-10.667,10.667v64H21.333V213.329H96c5.888,0,10.667-4.779,10.667-10.667
				S101.888,191.995,96,191.995H10.667C4.779,191.995,0,196.774,0,202.662v128c0,5.888,4.779,10.667,10.667,10.667h128
				c5.888,0,10.667-4.779,10.667-10.667v-74.667C149.333,250.107,144.555,245.329,138.667,245.329z"/>
			<path d="M224,191.995c-29.419,0-53.333,23.936-53.333,53.333v42.667c0,29.397,23.915,53.333,53.333,53.333
				s53.333-23.936,53.333-53.333v-42.667C277.333,215.931,253.419,191.995,224,191.995z M256,287.995c0,17.643-14.357,32-32,32
				s-32-14.357-32-32v-42.667c0-17.643,14.357-32,32-32s32,14.357,32,32V287.995z"/>
			<path d="M501.333,319.995H448v-42.667h32c5.888,0,10.667-4.779,10.667-10.667s-4.779-10.667-10.667-10.667h-32v-42.667h53.333
				c5.888,0,10.667-4.779,10.667-10.667s-4.779-10.667-10.667-10.667h-64c-5.888,0-10.667,4.779-10.667,10.667v128
				c0,5.888,4.779,10.667,10.667,10.667h64c5.888,0,10.667-4.779,10.667-10.667S507.221,319.995,501.333,319.995z"/>
			<path d="M394.667,191.995h-85.333c-5.888,0-10.667,4.779-10.667,10.667s4.779,10.667,10.667,10.667h32v117.333
				c0,5.888,4.779,10.667,10.667,10.667c5.888,0,10.667-4.779,10.667-10.667V213.329h32c5.888,0,10.667-4.779,10.667-10.667
				S400.555,191.995,394.667,191.995z"/>
		</g>
	</g>
</g>
</svg>